<svg xmlns="http://www.w3.org/2000/svg" width="420" height="560" viewBox="0 0 420 560">
  <rect width="420" height="560" fill="none"/>
  <g opacity=".45">
    <path d="M210 22c25 39 25 83 0 132-25-49-25-93 0-132Z" fill="#d7e5e4"/>
    <path d="M210 538c-25-39-25-83 0-132 25 49 25 93 0 132Z" fill="#d7e5e4"/>
    <path d="M88 136c54 14 91 50 122 104-61-23-103-57-122-104Z" fill="#d7e5e4"/>
    <path d="M332 136c-54 14-91 50-122 104 61-23 103-57 122-104Z" fill="#d7e5e4"/>
    <path d="M88 424c54-14 91-50 122-104-61 23-103 57-122 104Z" fill="#d7e5e4"/>
    <path d="M332 424c-54-14-91-50-122-104 61 23 103 57 122 104Z" fill="#d7e5e4"/>
  </g>
  <g fill="none" stroke="#cbdcda" stroke-width="5.2" stroke-linecap="round" stroke-linejoin="round" opacity=".36">
    <path d="M210 72c-28 56-28 103 0 150 28-47 28-94 0-150Z"/>
    <path d="M210 488c28-56 28-103 0-150-28 47-28 94 0 150Z"/>
    <path d="M64 280c50-26 96-26 146 0-50 26-96 26-146 0Z"/>
    <path d="M356 280c-50-26-96-26-146 0 50 26 96 26 146 0Z"/>
    <path d="M210 280c-58-34-102-82-132-146 63 28 108 77 132 146Z"/>
    <path d="M210 280c58-34 102-82 132-146-63 28-108 77-132 146Z"/>
    <path d="M210 280c-58 34-102 82-132 146 63-28 108-77 132-146Z"/>
    <path d="M210 280c58 34 102 82 132 146-63-28-108-77-132-146Z"/>
  </g>
  <g fill="none" stroke="#eaf4f3" stroke-width="2.6" stroke-linecap="round" stroke-linejoin="round" opacity=".9">
    <path d="M210 82c-19 44-19 86 0 126 19-40 19-82 0-126Z"/>
    <path d="M210 478c19-44 19-86 0-126-19 40-19 82 0 126Z"/>
    <path d="M102 160c45 22 80 58 108 120"/>
    <path d="M318 160c-45 22-80 58-108 120"/>
    <path d="M102 400c45-22 80-58 108-120"/>
    <path d="M318 400c-45-22-80-58-108-120"/>
    <path d="M132 106c22 16 33 36 31 60"/>
    <path d="M288 106c-22 16-33 36-31 60"/>
    <path d="M132 454c22-16 33-36 31-60"/>
    <path d="M288 454c-22-16-33-36-31-60"/>
  </g>
  <g fill="#d5e2e1" opacity=".34">
    <path d="M210 226c13 16 13 29 0 44-13-15-13-28 0-44Z"/>
    <path d="M210 334c13-16 13-29 0-44-13 15-13 28 0 44Z"/>
    <path d="M182 280c-18 12-33 12-48 0 15-12 30-12 48 0Z"/>
    <path d="M238 280c18 12 33 12 48 0-15-12-30-12-48 0Z"/>
  </g>
  <g stroke="#b9cfcd" stroke-width="1" opacity=".22">
    <path d="M0 42h420M0 50h420M0 58h420M0 214h420M0 222h420M0 230h420M0 378h420M0 386h420M0 394h420M0 542h420M0 550h420"/>
  </g>
</svg>
